Patient4_TMGait_0pt5_02_right_27_EMG.mot
version=1
nRows=40
nColumns=33
inDegrees=no
endheader
time	1LAddLong	2LGlutMax	3LGlutMed	4LIliopsoas	5LSemiMemb	6LBicFemLong	7LRecFem	8LVastMed	9LVastLat	10LGasMed	11LTibAnt	12lTibPost	13LPeroneusLong	14LSol	15LExtDigLong	16LFlexDigLong	17RAddLong	18RGlutMax	19RGlutMed	20RIliopsoas	21RSemiMemb	22RBicFemLong	23RRecFem	24RVastMed	25RVastLat	26RGasMed	27RTibAnt	28RTibPost	29RPeroneusLong	30RSol	31RExtDigLong	32RFlexDigLong
35.652	-0.00061	-0.36438	-0.050812	0.008545	0.007782	-0.028992	-0.016632	-0.007629	0.060272	-0.097961	-0.035553	-0.0354	-0.1413	0.33936	0.001068	-0.018005	-0.039215	-0.2182	0.53406	0.021362	-0.005493	-0.25482	0.1445	-0.022583	-0.043793	-0.075073	0.10223	-0.077209	-0.1561	-0.029297	-0.002747	-0.007782
35.653	-0.005646	-0.40237	-0.046844	-0.008698	0.009766	-0.035706	0.027161	-0.002899	0.081024	-0.052643	-0.038452	-0.026703	-0.10269	0.14572	-0.010986	-0.019379	-0.017395	-0.20248	1.1464	-0.10986	-0.05127	-0.31281	0.1944	-0.041199	-0.070801	-0.071716	0.13672	0.20767	-0.70908	-0.044403	-0.004883	-0.007172
35.654	0.003204	-0.42694	-0.07431	0.010834	0.004883	-0.039063	0.029755	-0.01358	0.090485	-0.028839	-0.007629	-0.004425	-0.098877	0.068665	0.029602	-0.01709	-0.012054	-0.26871	0.86151	-0.066681	0.046844	-0.54474	0.26398	0.012207	-0.054779	-0.031281	0.16129	0.13886	-0.89798	0.10315	-0.009308	-0.002747
35.655	0.00885	-0.43106	-0.077209	0.017548	0.009766	-0.026855	0.04715	-0.010529	0.085297	-0.023193	0.002747	-0.012054	-0.099487	0.073242	0.090637	-0.00061	0.018158	-0.10696	0.31967	0.016022	0.12238	-0.65506	0.37079	0.005646	-0.046539	-0.032959	0.07782	0.010529	0.3772	0.26077	-0.003052	-0.00473
35.656	0.007477	-0.44266	-0.07843	0.025787	0.005646	-0.006256	0.10452	-0.007935	0.089264	-0.022125	0.019531	-0.018921	-0.11551	0.070953	0.059204	0.005341	0.031128	0.035095	0.24094	0.038757	0.085297	-0.62836	0.3978	-0.006561	0.3093	0.007172	-0.020294	0.022736	1.1549	0.39978	-0.003662	0.003357
35.657	0.005493	-0.44373	-0.10025	0.005341	0.009766	-0.012054	0.14999	-0.011749	0.099792	-0.027618	-0.005035	-0.014801	-0.10178	0.034485	-0.033569	0.014801	0.059357	-0.028229	-0.022125	0.054626	0.094299	-0.4715	0.44708	-0.12238	0.42374	0.05188	-0.015259	0.002136	0.22736	0.39597	-0.001373	-0.002899
35.658	-0.000153	-0.45258	-0.12146	0.002594	0.015564	-0.001068	0.16647	-0.005951	0.10834	-0.034637	-0.07309	-0.012054	-0.07782	0.044098	-0.10147	0.018158	0.077209	-0.13016	-0.23789	0.018616	0.17181	-0.65033	0.52261	-0.14694	0.32288	0.057983	0.049744	-0.019226	-1.1461	0.15427	0.006714	-0.006409
35.659	0.003357	-0.5307	-0.16007	0.008087	0.016327	-0.010223	0.15274	-0.016022	0.12665	-0.025024	-0.012512	-0.000916	-0.090179	0.05249	-0.059509	0.005188	0.075836	-0.44922	-0.12405	-0.006409	0.23102	-0.66269	0.54688	-0.13397	0.11749	0.026855	0.16785	-0.027924	-0.78934	0.19287	0.000458	-0.001831
35.66	0.001831	-0.55237	-0.1384	0.000458	0.014343	-0.002289	0.15213	-0.020142	0.13046	-0.039368	-0.006409	-0.001984	-0.10696	0.021057	-0.042114	-0.000916	0.030975	-0.70877	0.000153	-0.069885	-0.054321	-0.36194	0.36331	-0.14465	-0.121	-0.003204	0.21957	-0.039063	0.26642	0.20096	-0.001373	-0.014343
35.661	-0.00061	-0.54031	-0.1387	-0.013123	0.01297	-0.007935	0.13809	-0.021667	0.13016	-0.039673	-0.069275	0.001373	-0.085449	0.015717	0.32379	-0.00412	-0.028076	-0.70175	0.35324	-0.040131	-0.34515	-0.17059	-0.07431	-0.1297	-0.31464	-0.011597	0.063782	-0.046387	1.5703	0.040894	-0.00061	-0.001831
35.662	0.00412	-0.55191	-0.15671	0.007782	0.006714	0.00412	0.087738	-0.016937	0.14923	-0.071411	-0.11871	0.004578	-0.033722	0.006104	-0.2063	0.00946	-0.069122	-0.79498	-0.54062	0.027313	-0.46036	-0.069275	-0.28427	0.16998	-0.3717	-0.027771	-0.13672	-0.052643	1.4066	-0.052643	-0.001984	0.003052
35.663	0.003357	-0.55344	-0.15869	-0.001526	0.011902	-0.007477	0.028687	-0.016327	0.15121	-0.067749	-0.14069	0.016937	-0.068512	0.009918	0.082703	0.011139	-0.083923	-0.85342	-0.51743	0.011597	-0.39032	-0.099335	-0.14526	0.27268	-0.40955	-0.06546	-0.15366	-0.071106	0.65613	-0.022736	-0.001221	0.004425
35.664	0.000458	-0.54718	-0.16403	0.012207	0.015411	-0.017242	0.00351	-0.02121	0.1593	-0.076904	-0.14297	0.010529	-0.12161	0.029602	-0.10162	0.003357	-0.020142	-0.98297	-0.37949	0.056915	-0.18967	-0.10498	-0.025787	-0.12009	-0.36575	-0.062866	-0.059509	-0.000153	-0.1152	-0.069275	-0.005951	0.009003
35.665	0.001221	-0.57816	-0.17578	0.012207	0.008545	-0.006256	0.002747	-0.010223	0.17288	-0.071564	-0.10498	0.022278	-0.14404	0.027924	-0.22598	-0.002594	-0.016785	-1.1746	-0.737	0.10223	0.012512	-0.014648	0.015717	-0.34347	-0.19608	0.013123	-0.045471	0.040894	-0.16922	-0.093231	-0.003204	0.005951
35.666	-0.005035	-0.62729	-0.17212	0.024719	0.005798	-0.009613	0.040283	-0.013885	0.20569	-0.075378	-0.20599	0.029907	-0.12161	0.05127	-0.14786	-0.005035	-0.015564	-1.4607	-0.18066	-0.011597	0.21057	0.00061	-0.021973	-0.33173	-0.063171	-0.027466	0.045013	-0.047607	-0.32074	0.052948	-0.005188	-0.002747
35.667	-0.000916	-0.61035	-0.17853	0.025024	0.00885	-0.01709	0.022736	-0.011749	0.21606	-0.063019	-0.16235	0.015564	-0.13473	0.036926	-0.29144	0.010071	-0.00061	-1.6608	-0.39642	-0.006104	0.16052	0.19333	-0.014191	-0.099335	-0.037079	0.008698	0.077667	-0.083618	-0.12711	0.045929	-0.000153	0.001831
35.668	-0.005035	-0.6308	-0.18021	0.006104	0.009155	-0.009155	0.004425	-0.021057	0.22339	-0.012512	0.13825	0.012207	-0.10223	0.032501	-0.30365	0.018158	-0.01297	-1.725	-1.053	-0.063171	0.036316	0.13397	0.014954	0.044098	-0.085754	0.027161	0.059967	0.050049	-0.22736	0.059967	-0.004272	0.008087
35.669	0.003357	-0.60928	-0.18005	0.000153	0.011292	0.002594	-0.034637	-0.015717	0.22125	-0.035095	0.38925	0.026093	-0.13886	0.045166	-0.33279	0.020294	-0.027924	-1.7441	-1.1006	-0.083618	-0.055237	0.044556	-0.19592	0.14969	-0.082855	-0.007629	-0.012512	-0.031586	-0.039063	0.1181	0.001221	-0.007782
35.67	0.004425	-0.569	-0.2002	0.002289	0.005951	-0.014801	-0.01297	-0.009003	0.23483	-0.04303	0.62195	0.018158	-0.12802	0.085602	0.61096	0.036774	-0.013885	-1.5085	-0.89493	-0.031586	-0.062714	-0.085144	-0.17716	-0.11475	-0.054474	-0.04715	-0.031128	-0.062561	0.19501	0.049896	-0.004272	-0.008698
35.671	0.000763	-0.56793	-0.19516	0.009003	0.004578	0.014343	0.024414	-0.014496	0.26642	-0.13809	0.53604	0.022278	-0.001678	0.11993	0.56595	0.052795	0.015106	-1.3164	-1.1049	0.005035	-0.015564	-0.1619	-0.14648	0.018768	-0.036926	-0.058899	0.031128	-0.034332	0.30075	-0.042419	-0.004272	-0.002289
35.672	-0.007782	-0.49149	-0.19867	0.010681	0.001068	0.03891	0.053711	-0.02243	0.27252	-0.13473	0.080719	0.031281	0.074921	0.15182	1.3469	0.047607	0.047913	-1.4659	-0.70068	0.091858	0.000305	-0.24612	-0.10956	0.083923	0.28778	-0.075531	0.024567	-0.001678	0.33676	-0.045319	-0.003815	-0.007629
35.673	0.052795	-0.51025	-0.18997	-0.001526	0.008392	0.041504	0.060577	-0.014496	0.27435	-0.11246	-0.005188	0.029144	0.023956	0.15076	0.36362	0.055237	0.028839	-1.5089	-0.23422	0.016937	-0.25452	-0.071411	-0.053101	0.14771	0.45715	-0.064697	0.00351	-0.097809	0.24307	-0.084534	-0.00473	-0.006256
35.674	0.043945	-0.49439	-0.19379	-0.004578	0.005493	0.057831	0.065155	-0.004425	0.26932	-0.084839	-0.14725	0.033722	-0.049286	0.16174	-0.23743	0.04837	0.009918	-1.4455	-0.3656	0.051117	-0.36865	-0.023651	-0.12573	0.10208	0.38406	0.014954	0.010223	-0.029449	0.20157	-0.12665	-0.00946	-0.006409
35.675	-0.034485	-0.46493	-0.19058	0.010834	0.002289	0.031433	0.15137	-0.007935	0.26672	-0.09552	-0.16571	0.038605	-0.015564	0.16266	-0.3804	0.040283	0.016479	-1.3034	-0.60883	0.071106	-0.18158	0.015717	-0.21698	0.2214	0.31342	0.097809	0.019836	0.048981	0.34943	-0.18646	-0.002441	-0.005341
35.676	0.007629	-0.42435	-0.18219	-0.000458	0.001678	0.040588	0.21866	-0.011597	0.28076	-0.14191	-0.3241	0.033264	0.062256	0.12848	-0.56656	0.045319	-0.024414	-1.1324	-0.77667	0.003357	-0.23544	-0.082703	-0.10956	0.24536	0.14923	0.11047	0.035248	0.014343	0.50903	-0.072937	0.000305	0.008087
35.677	-0.009155	-0.39291	-0.19226	-0.012512	0.002747	0.043488	0.19501	-0.000763	0.27283	-0.11765	-0.30182	0.031586	0.082245	-0.015259	-0.94086	0.03479	-0.032349	-0.87448	-0.25436	-0.055237	-0.1474	-0.11932	0.10864	0.31281	-0.14572	0.069122	0.080872	0.008392	-0.1564	-0.18967	-0.004883	-0.001373
35.678	-0.004578	-0.39078	-0.20508	-0.000763	0.001984	0.031128	0.16525	0.001984	0.26413	-0.082092	-0.19424	0.029907	0.037384	-0.085144	-1.0342	0.024414	-0.033264	-0.86899	-0.23071	-0.015564	-0.049438	-0.14511	0.13428	0.15137	-0.44678	0.004578	0.085907	-0.042267	-0.51895	-0.40558	-0.003357	0.001984
35.679	-0.017853	-0.36575	-0.20172	0.008698	-0.00061	0.024872	0.18097	-0.003357	0.25818	-0.052338	-0.15121	0.02655	-0.030365	-0.15549	-0.59479	0.04837	-0.048218	-0.92956	-0.75577	0.045166	0.10452	-0.31403	0.13733	0.15198	-0.43701	-0.17761	-0.019684	-0.24933	-0.24399	-0.19287	-0.002899	0.005798
35.68	-0.01297	-0.34149	-0.19363	0.044403	0.010834	0.005035	0.25772	-0.006256	0.26474	-0.052643	-0.22079	-0.000916	-0.046844	-0.15091	-0.28931	0.038605	-0.033722	-0.68008	-0.54642	-0.014191	0.1738	-0.44022	0.092621	0.15564	-0.10391	-0.2655	-0.11444	-0.27481	-0.11353	0.15121	-0.003815	0.021515
35.681	-0.015869	-0.31158	-0.19134	0.053711	0.000763	0.016937	0.39673	-0.007172	0.2594	-0.079193	-0.2214	-0.071106	-0.032806	-0.11581	0.21378	0.045471	-0.012207	-0.30487	0.41367	-0.023956	0.011749	-0.50995	0.075989	0.072327	0.063477	-0.27893	-0.14435	-0.10757	-0.46509	-0.10223	-0.005188	0.007324
35.682	-0.01709	-0.31036	-0.17914	0.035706	0.01236	0.026703	0.43671	0.007324	0.25177	-0.066376	-0.017242	-0.10925	-0.103	0.043945	0.17777	0.046692	0.01236	-0.026703	0.9372	-0.036774	-0.014954	-0.62347	0.087128	-0.013275	0.014648	-0.16785	-0.075836	-0.018921	-0.42374	-0.51575	-0.008392	-0.007172
35.683	-0.018005	-0.3122	-0.18433	0.010376	0.005035	0.019684	0.38513	0.005493	0.21393	-0.074768	0.043335	-0.12833	-0.097198	0.13351	1.5851	0.049591	0.02594	0.084839	-0.041962	0.023956	-0.099945	-0.63049	0.13214	-0.19394	-0.004272	0.10925	-0.002441	0.54336	0.049438	-0.99701	-0.001831	-0.019989
35.684	-0.019379	-0.30609	-0.19287	-0.006561	0.007782	0.018158	0.30334	0.006104	0.20477	-0.11566	-0.10239	-0.13138	-0.007629	0.13153	1.2007	0.041046	0.040283	0.011749	0.28763	-0.059204	-0.12833	-0.59265	0.14038	-0.13901	-0.001831	0.10407	-0.001526	0.21774	0.19287	-0.26474	-0.004425	-0.024567
35.685	-0.023956	-0.29953	-0.20981	-0.015106	0.005188	0.019531	0.22476	0.004578	0.20477	-0.13275	-0.27069	-0.17181	0.028687	0.103	0.043182	0.028229	0.074768	0.13596	0.41962	-0.10254	-0.12543	-0.45959	0.2681	-0.016479	-0.02655	0.12817	0.018921	0.12009	0.22476	0.6987	-0.003357	-0.010071
35.686	-0.017242	-0.32181	-0.22293	0.016174	0.007172	0.00351	0.18066	0.015564	0.18463	-0.12741	-0.34607	-0.22446	0.060577	0.058746	-0.49698	0.007324	0.06958	0.17014	0.4541	-0.071411	-0.14221	-0.20035	0.070038	-0.089111	-0.20172	0.20798	0.031128	-0.063934	0.014648	0.75729	-0.004883	-0.011444
35.687	-0.019073	-0.29938	-0.21301	0.024414	0.006561	0.003204	0.14664	0.034332	0.16785	-0.11353	-0.33676	-0.30487	0.025024	0.070496	-0.68283	0.014038	0.018768	0.1445	-0.16342	-0.034637	0.087891	0.015564	-0.059509	-0.025787	-0.11658	0.18341	0.04425	-0.001373	0.060883	0.72144	-0.002136	-0.005951
35.688	-0.012665	-0.30441	-0.20325	0.028381	-0.001526	-0.00061	0.058899	-0.001373	0.16022	-0.091858	-0.059204	-0.32394	-0.024109	0.019379	-0.81375	0.018616	0.002747	0.20584	-0.083771	-0.022278	0.18524	0.14725	-0.20905	0.056763	-0.00824	0.1062	0.053711	0.30762	0.066528	0.63126	-0.003967	-0.006561
35.689	-0.013123	-0.24384	-0.18005	-0.014191	0.007629	-0.002289	-0.021057	0.013733	0.15808	-0.065308	0.22217	-0.31052	-0.10452	-0.064392	-0.43991	0.006256	-0.016632	0.26352	0.4602	-0.034637	0.010834	0.33035	-0.45944	0.10666	0.07843	0.073853	0.013733	0.065765	0.039825	0.75317	-0.001526	-0.009918
35.69	-0.012665	-0.20706	-0.16022	-0.026093	0.001526	0.00412	-0.10483	-0.00351	0.15747	-0.025024	0.11688	-0.27557	-0.16983	-0.13718	-0.094147	0.002747	-0.044708	0.2739	0.53085	-0.035858	-0.28763	0.49042	-0.32852	0.049896	0.075684	0.067749	-0.007172	-0.016632	0.063324	0.4631	-0.001526	-0.011749
35.691	-0.012054	-0.14587	-0.14221	-0.015259	0.012512	-0.001831	-0.2182	0.014801	0.15671	-0.019836	0.03891	-0.22171	-0.12146	-0.22186	-0.47028	0.016632	-0.018768	0.21469	0.086975	0.008545	-0.34912	0.27542	-0.12787	-0.004883	-0.091858	0.055237	-0.01709	-0.019684	-0.021362	0.17777	-0.006104	-0.014191
